<svg width="16" height="20" viewBox="0 0 16 20" fill="none" xmlns="http://www.w3.org/2000/svg">
<path d="M0.470703 16.6794V15.1797H2.27845V7.71792C2.27845 6.37309 2.69354 5.18401 3.5237 4.15067C4.3537 3.11734 5.41937 2.45642 6.7207 2.16792V1.54492C6.7207 1.19776 6.84212 0.902589 7.08495 0.659422C7.32779 0.416422 7.62262 0.294922 7.96945 0.294922C8.31645 0.294922 8.6117 0.416422 8.8552 0.659422C9.09887 0.902589 9.2207 1.19776 9.2207 1.54492V2.16792C10.522 2.45642 11.5877 3.11734 12.4177 4.15067C13.2479 5.18401 13.663 6.37309 13.663 7.71792V15.1797H15.4707V16.6794H0.470703ZM7.96895 19.4872C7.47145 19.4872 7.04612 19.3102 6.69295 18.9562C6.33962 18.6022 6.16295 18.1766 6.16295 17.6794H9.77845C9.77845 18.1783 9.60129 18.6043 9.24695 18.9574C8.89262 19.3106 8.46662 19.4872 7.96895 19.4872ZM3.77845 15.1797H12.163V7.71792C12.163 6.56026 11.7537 5.57217 10.9352 4.75367C10.1165 3.935 9.12837 3.52567 7.9707 3.52567C6.81304 3.52567 5.82487 3.935 5.0062 4.75367C4.1877 5.57217 3.77845 6.56026 3.77845 7.71792V15.1797Z" fill="#FDFDFD"/>
</svg>