<svg width="11" height="19" viewBox="0 0 11 19" fill="none" xmlns="http://www.w3.org/2000/svg">
<path d="M4.51678 13.1413C4.51678 12.0093 4.6472 11.1426 4.90803 10.5413C5.16886 9.93993 5.71345 9.27326 6.54178 8.54126C7.18661 7.96693 7.67537 7.4461 8.00803 6.97876C8.3407 6.51143 8.50703 5.9816 8.50703 5.38926C8.50703 4.60343 8.23945 3.95026 7.70428 3.42976C7.16895 2.90926 6.43203 2.64901 5.49353 2.64901C4.6372 2.64901 3.97053 2.87843 3.49353 3.33726C3.0167 3.79626 2.65453 4.30851 2.40703 4.87401L0.582031 4.07201C0.970531 3.11435 1.57695 2.31593 2.40128 1.67676C3.22561 1.03776 4.25636 0.718262 5.49353 0.718262C7.10886 0.718262 8.35212 1.17368 9.22328 2.08451C10.0944 2.99535 10.53 4.07643 10.53 5.32776C10.53 6.10976 10.3605 6.79985 10.0215 7.39801C9.68237 7.99601 9.16795 8.61876 8.47828 9.26626C7.61028 10.0624 7.07278 10.6903 6.86578 11.1498C6.65862 11.6094 6.55503 12.2733 6.55503 13.1413H4.51678ZM5.49353 18.872C5.08453 18.872 4.73228 18.7243 4.43678 18.4288C4.14128 18.1333 3.99353 17.781 3.99353 17.372C3.99353 16.963 4.14128 16.6108 4.43678 16.3153C4.73228 16.0198 5.08453 15.872 5.49353 15.872C5.90253 15.872 6.25478 16.0198 6.55028 16.3153C6.84578 16.6108 6.99353 16.963 6.99353 17.372C6.99353 17.781 6.84578 18.1333 6.55028 18.4288C6.25478 18.7243 5.90253 18.872 5.49353 18.872Z" fill="#061533"/>
</svg>