<svg width="1457" height="925" viewBox="0 0 1457 925" fill="none" xmlns="http://www.w3.org/2000/svg">
<path fill-rule="evenodd" clip-rule="evenodd" d="M770.528 443.189C758.905 447.646 758.19 439.998 742.492 450.333C729.403 458.951 726.201 453.502 722.884 455.227C720.439 456.493 721.554 457.493 717.637 458.515C707.079 461.261 697.714 460.21 687.514 462.202C684.733 462.742 675.368 463.305 673.731 464.475C666.855 469.391 667.905 466.918 660.45 468.532C651.485 470.472 646.91 476.165 635.652 478.712C632.657 479.393 615.565 487.411 611.697 489.218C598.001 495.637 578.1 503.833 566.212 513.08C567.427 519.047 570.908 528.835 574.397 533.744C584.805 548.403 580.83 540.792 584.576 544.923C586.37 546.9 585.448 547.677 587.057 549.484C589.637 549.328 590.888 536.32 598.18 544.331C600.524 546.9 610.353 540.673 613.42 539.341C616.101 538.186 618.996 537.542 619.618 534.166C619.754 533.425 621.777 535.098 624.5 534.047C631.498 531.345 632.006 528.724 640.984 526.266C643.808 525.488 655.953 520.498 656.582 517.803C658.527 509.43 658.462 519.566 667.569 514.649C670.543 513.043 674.889 512.488 677.12 510.903C679.75 509.037 678.521 507.327 682.874 504.625C684.976 503.322 686.842 500.02 687.514 501.227C690.544 506.631 685.376 507.379 710.617 500.086C712.926 499.413 718.481 498.073 720.275 496.918C721.683 496.014 718.959 494.215 721.99 494.511C726.415 494.933 747.718 486.501 753.98 484.857C779.449 478.171 802.818 460.24 826.729 451.355C822.319 456.952 817.994 462.942 811.432 461.21C809.115 460.595 801.488 469.324 796.77 472.063C793.317 474.07 785.397 480.504 781.294 483.391C778.299 485.494 764.938 489.025 761.014 489.699C742.942 492.794 739.19 492.15 727.102 508.09C721.526 515.442 708.366 530.753 701.274 535.868C703.519 531.945 714.992 520.935 718.909 516.256C721.747 512.873 724.185 508.978 727.094 505.573C732.827 498.865 730.361 502.011 733.95 494.845C724.771 495.089 708.673 502.878 698.865 505.691C693.268 507.298 686.999 509.8 681.545 511.962C663.995 518.914 670.079 514.59 667.555 519.936C665.261 517.937 668.177 516.604 662.966 518.87C656.754 521.557 651.135 524.793 644.38 527.517C641.592 528.65 621.391 538.023 619.904 539.082L621.033 555.259C620.204 558.79 617.752 558.376 620.09 562.737C622.92 568.008 619.732 567.282 616.501 567.179L617.059 569.267L620.025 570.222L619.339 592.188C624.4 592.522 634.186 587.309 638.711 584.341C641.978 582.201 643.586 580.113 646.653 578.225C650.692 575.745 651.407 571.791 652.972 570.051C656.69 574.027 651.957 573.738 659.742 571.34C663.974 570.037 662.408 566.742 668.499 566.616C668.048 567.734 662.415 573.442 661.515 573.931C655.281 577.285 659.899 573.228 655.932 580.343C652.951 585.695 649.784 581.66 647.011 582.416C645.953 582.704 639.905 586.88 638.161 587.842C634.351 589.938 621.719 594.772 621.026 598.593L618.588 617.613C618.76 622.055 617.974 618.523 617.102 621.159L620.661 623.632L619.582 621.374L627.467 625.935L627.981 624.994C629.061 629.022 635.173 634.723 638.325 635.197C640.084 635.456 649.991 643.141 649.884 645.369L664.56 656.334C669.836 654.779 743.586 705.036 751.027 707.908C758.783 710.907 759.148 711.61 763.287 719.014C764.095 720.465 771.15 733.347 771.15 733.503L776.704 741.425L777.569 738.049L778.005 737.627L811.432 682.336L839.126 623.048L855.124 556.231L857.006 483.391C853.242 468.712 851.36 447.066 848.453 437.703C840.704 442.382 781.172 444.381 770.528 443.189Z" fill="#061533" fill-opacity="0.4"/>
<path fill-rule="evenodd" clip-rule="evenodd" d="M198.248 673.866L277.299 770.798L300.826 760.446L340.352 715.274L434.59 618.836L435.218 619.657C443.187 616.083 450.782 597.197 458.927 597.622L458.116 594.596L442.001 610.7C437.239 607.948 423.114 573.687 422.448 567.62C421.782 561.522 418.873 562.472 417.388 556.891C416.293 552.763 415.497 548.535 414.379 544.392C413.346 540.544 408.875 520.031 408.377 518.883L408.132 521.156C405.162 513.849 411.103 513.826 399.948 510.443C386.712 506.428 367.665 501.752 354.39 498.772C333.153 494.012 312.001 490.385 290.649 486.188C282.006 484.493 245.887 479.094 241.676 477.718C234.464 475.354 234.296 479.832 226.158 477.65C217.086 475.217 203.275 476.289 192.443 473.232C188.163 472.023 185.869 470.691 186.014 470.6L173.78 464.005L172.839 467.769V470.6L171.898 473.416V575.053L198.248 673.866Z" fill="#061533" fill-opacity="0.4"/>
<path fill-rule="evenodd" clip-rule="evenodd" d="M504.186 468.385L512.235 363.448L514.651 352.778L517.178 323.838L516.324 323.695L515.367 328.9L516.317 321.144L516.641 323.511L517.392 323.313L518.603 314.574L518.817 317.234L520.531 316.689L519.478 316.293L522.053 291.501L526.686 249.116L516.111 252.615L517.075 250.494L524.683 247.649C523.581 247.124 512.889 248.938 511.739 250.494C510.741 251.858 516.393 251.845 509.136 253.571C501.852 255.31 505.921 254.376 501.576 257.923C499.291 259.785 500.055 257.179 497.287 258.278C487.021 262.337 464.252 277.441 454.31 284.099C431.093 299.661 396.702 324.302 376.584 343.008C364.156 354.558 346.895 364.027 356.149 381.656C358.049 385.285 356.259 387.789 359.419 390.606C363.261 394.011 361.258 398.179 364.514 400.689C368.012 403.391 378.574 413.999 381.342 417.547C391.903 431.109 400.888 441.042 414.659 452.476C420.786 457.565 426.9 463.241 433.428 467.778C435.954 469.538 440.43 474.095 442.977 474.573C445.938 475.126 452.114 471.38 452.692 468.808L435.658 455.103C440.698 457.211 453.064 467.341 459.749 471.087C463.674 473.284 469.994 475.303 473.258 477.766C480.35 483.107 477.658 476.906 487.51 480.945L503.132 473.195L504.186 468.385Z" fill="#061533" fill-opacity="0.4"/>
<path fill-rule="evenodd" clip-rule="evenodd" d="M515.556 572.345L512.113 572.396L511.629 572.52L512.455 614.56L513.939 607.027L520.651 706.71C522.262 707.392 525.78 704.221 527.075 702.109C530.324 696.79 529.337 697.951 535.708 697.813C537.594 697.769 551.08 691.151 552.254 689.685C553.449 687.08 588.577 664.423 593.873 660.853C600.458 656.419 605.633 653.051 612.527 647.87C618.3 643.53 627.201 634.814 632.088 631.781C625.939 628.261 619.878 624.85 614.608 620.656C609.56 616.65 604.103 612.18 598.961 608.399C596.397 606.504 565.062 585.038 569.593 583.855L551.872 569.406C551.751 571.438 544.005 569.813 540.796 570.923C535.567 572.745 536.238 575.168 532.694 575.989C526.048 577.52 529.606 579.073 523.531 577.716C519.02 576.707 516.926 579.632 512.851 578.942L512.489 582.447C512.032 569.493 512.824 574.581 515.556 572.345Z" fill="#061533" fill-opacity="0.4"/>
<g filter="url(#filter0_dd_6010_14)">
<path d="M921 504.471C921 697.296 764.684 853.612 571.858 853.612C379.033 853.612 222.717 697.296 222.717 504.471C222.717 311.645 379.033 155.329 571.858 155.329C764.684 155.329 921 311.645 921 504.471Z" fill="#F1F1F1" fill-opacity="0.8" shape-rendering="crispEdges"/>
</g>
<path fill-rule="evenodd" clip-rule="evenodd" d="M1059.89 364.558C1042.54 371.211 1041.47 359.794 1018.04 375.223C998.5 388.088 993.719 379.954 988.768 382.529C985.118 384.419 986.783 385.911 980.935 387.436C965.174 391.537 951.194 389.967 935.967 392.94C931.815 393.747 917.836 394.587 915.392 396.333C905.127 403.672 906.695 399.981 895.565 402.39C882.184 405.286 875.354 413.785 858.547 417.587C854.076 418.604 828.561 430.573 822.788 433.27C802.342 442.852 772.633 455.087 754.887 468.892C756.701 477.8 761.898 492.411 767.105 499.739C782.643 521.622 776.709 510.26 782.301 516.427C784.98 519.378 783.603 520.539 786.004 523.236C789.856 523.004 791.724 503.585 802.608 515.543C806.109 519.378 820.781 510.083 825.359 508.094C829.361 506.37 833.683 505.408 834.611 500.369C834.814 499.263 837.834 501.761 841.9 500.192C852.347 496.158 853.105 492.245 866.508 488.576C870.723 487.415 888.853 479.966 889.792 475.943C892.695 463.443 892.599 478.573 906.194 471.235C910.633 468.836 917.121 468.007 920.451 465.642C924.378 462.857 922.542 460.304 929.041 456.27C932.178 454.325 934.963 449.395 935.967 451.197C940.491 459.265 932.776 460.381 970.456 449.495C973.903 448.489 982.194 446.489 984.873 444.764C986.975 443.416 982.909 440.73 987.434 441.172C994.039 441.802 1025.84 429.214 1035.19 426.76C1073.21 416.78 1108.09 390.011 1143.79 376.749C1137.2 385.104 1130.75 394.045 1120.95 391.459C1117.49 390.542 1106.11 403.572 1099.07 407.662C1093.91 410.657 1082.09 420.261 1075.96 424.572C1071.49 427.711 1051.55 432.983 1045.69 433.988C1018.71 438.608 1013.11 437.647 995.064 461.442C986.74 472.417 967.094 495.273 956.509 502.911C959.859 497.053 976.987 480.618 982.834 473.633C987.071 468.582 990.71 462.769 995.053 457.685C1003.61 447.671 999.93 452.368 1005.29 441.67C991.585 442.034 967.553 453.662 952.912 457.861C944.557 460.26 935.198 463.995 927.056 467.223C900.858 477.601 909.939 471.146 906.172 479.126C902.747 476.142 907.101 474.152 899.322 477.534C890.048 481.546 881.661 486.376 871.576 490.444C867.415 492.135 837.258 506.127 835.038 507.707L836.724 531.856C835.486 537.128 831.826 536.51 835.316 543.019C839.541 550.889 834.782 549.805 829.959 549.651L830.791 552.767L835.22 554.193L834.195 586.985C841.75 587.483 856.359 579.702 863.114 575.27C867.991 572.076 870.392 568.959 874.97 566.141C880.999 562.438 882.066 556.536 884.403 553.939C889.952 559.874 882.888 559.443 894.509 555.862C900.826 553.917 898.489 548.999 907.581 548.811C906.909 550.48 898.5 559.001 897.155 559.73C887.85 564.737 894.744 558.68 888.821 569.302C884.371 577.292 879.644 571.269 875.503 572.396C873.924 572.827 864.896 579.061 862.292 580.498C856.605 583.625 837.749 590.843 836.714 596.546L833.075 624.939C833.331 631.57 832.157 626.298 830.855 630.233L836.169 633.924L834.558 630.553L846.328 637.362L847.097 635.958C848.708 641.97 857.832 650.481 862.538 651.188C865.163 651.575 879.953 663.047 879.793 666.374L901.701 682.742C909.577 680.421 1019.67 755.444 1030.78 759.733C1042.36 764.209 1042.9 765.259 1049.08 776.311C1050.29 778.477 1060.82 797.708 1060.82 797.94L1069.11 809.766L1070.4 804.726L1071.05 804.096L1120.95 721.559L1162.29 633.053L1186.18 533.308L1188.99 424.572C1183.37 402.658 1180.56 370.345 1176.22 356.368C1164.65 363.353 1075.78 366.337 1059.89 364.558Z" fill="#E2E2E2" fill-opacity="0.4"/>
<path fill-rule="evenodd" clip-rule="evenodd" d="M205.588 708.913L323.595 853.612L358.717 838.159L417.721 770.726L558.4 626.762L559.337 627.988C571.234 622.653 582.571 594.459 594.731 595.095L593.519 590.578L569.463 614.617C562.354 610.509 541.269 559.364 540.275 550.307C539.28 541.204 534.938 542.623 532.721 534.292C531.086 528.128 529.898 521.818 528.229 515.632C526.686 509.889 520.012 479.266 519.269 477.552L518.904 480.945C514.469 470.038 523.338 470.004 506.687 464.953C486.927 458.96 458.493 451.979 438.677 447.53C406.974 440.425 375.398 435.011 343.524 428.746C330.622 426.214 276.703 418.156 270.417 416.101C259.652 412.571 259.4 419.257 247.252 415.999C233.709 412.367 213.093 413.967 196.921 409.405C190.533 407.6 187.108 405.611 187.325 405.475L169.062 395.63L167.657 401.25V405.475L166.252 409.679V561.403L205.588 708.913Z" fill="#E2E2E2" fill-opacity="0.4"/>
<path fill-rule="evenodd" clip-rule="evenodd" d="M560.214 410.339L569.406 290.5L572.166 278.315L575.052 245.266L574.077 245.102L572.984 251.047L574.069 242.189L574.438 244.892L575.295 244.666L576.679 234.686L576.923 237.724L578.881 237.101L577.678 236.649L580.619 208.337L585.91 159.932L573.833 163.929L574.934 161.506L583.622 158.257C582.364 157.657 570.153 159.73 568.84 161.506C567.7 163.064 574.155 163.049 565.868 165.02C557.549 167.007 562.196 165.939 557.234 169.99C554.624 172.117 555.497 169.141 552.336 170.396C540.612 175.031 514.61 192.28 503.256 199.884C476.743 217.655 437.468 245.796 414.492 267.158C400.3 280.348 380.588 291.162 391.155 311.294C393.326 315.439 391.281 318.298 394.89 321.515C399.278 325.403 396.99 330.163 400.709 333.03C404.703 336.116 416.765 348.23 419.926 352.282C431.987 367.77 442.248 379.114 457.974 392.171C464.972 397.983 471.954 404.465 479.408 409.646C482.294 411.656 487.405 416.86 490.314 417.406C493.695 418.037 500.748 413.76 501.408 410.822L481.956 395.171C487.711 397.578 501.833 409.147 509.468 413.425C513.949 415.933 521.168 418.239 524.895 421.052C532.993 427.152 529.919 420.07 541.171 424.682L559.011 415.832L560.214 410.339Z" fill="#E2E2E2" fill-opacity="0.4"/>
<path fill-rule="evenodd" clip-rule="evenodd" d="M679.259 557.363L674.118 557.439L673.397 557.623L674.63 620.381L676.844 609.136L686.865 757.943C689.27 758.962 694.521 754.227 696.455 751.075C701.305 743.134 699.832 744.867 709.341 744.661C712.157 744.596 732.289 734.716 734.042 732.528C735.826 728.639 788.264 694.817 796.17 689.487C806.001 682.868 813.727 677.841 824.018 670.106C832.636 663.628 845.923 650.617 853.218 646.088C844.039 640.834 834.991 635.743 827.124 629.481C819.589 623.501 811.442 616.827 803.766 611.183C799.938 608.356 753.162 576.311 759.926 574.545L733.471 552.975C733.291 556.009 721.727 553.582 716.937 555.24C709.131 557.959 710.133 561.577 704.842 562.801C694.921 565.087 700.232 567.406 691.164 565.38C684.43 563.874 681.303 568.24 675.221 567.211L674.68 572.443C673.998 553.105 675.181 560.7 679.259 557.363Z" fill="#E2E2E2" fill-opacity="0.4"/>
<g filter="url(#filter1_dddddd_6010_14)">
<path fill-rule="evenodd" clip-rule="evenodd" d="M576.118 346.078L567.719 456.594L566.735 462.068C566.8 467.263 562.798 472.716 558.817 475.734C556.03 477.846 553.996 476.057 550.361 478.076L544.319 483.781L519.61 470.417L517.088 474.419C523.152 482.437 526.22 476.122 532.277 479.362C535.41 481.043 534.727 484.104 535.704 485.412C537.974 488.458 537.687 486.18 539.9 491.483C538.025 494.824 539.699 489.701 537.234 493.882C535.848 496.232 536.767 495.082 534.914 496.9C526.967 504.638 527.14 517.326 522.19 517.111L524.819 517.887L522.52 522.815L472.608 509.818L471.465 505.644L471.487 511.025C471.954 512.11 478.848 525.186 479.818 528.822C480.867 532.737 484.301 538.715 485.335 542.616C486.729 547.89 487.405 548.134 489.474 553.652C490.099 559.385 500.51 581.931 504.648 594.346L518.166 582.571C521.105 584.345 527.513 588.168 530.876 587.923C535.855 587.557 539.699 588.275 543.133 592.055C546.424 595.676 563.143 603.27 568.244 603.507L568.819 600.992L567.935 559.371L568.452 559.249L572.138 559.199C578.36 558.301 587.564 556.857 593.002 554.011C596.746 552.05 598.319 550.045 602.414 551.418C604.045 551.957 610.188 555.262 611.007 556.289L629.975 570.594L672.035 600.842L672.775 599.821C677.014 596.847 676.403 593.757 676.46 589.008C676.554 581.22 679.176 581.055 673.471 578.749L675.354 551.899L674.801 549.873C674.901 546.302 678.616 532.888 674.908 531.02C674.018 531.897 667.005 534.692 665.331 535.611C659.095 539.003 665.08 539.082 655.431 539.347C650.258 539.491 654.698 542.02 644.208 541.891C640.206 541.84 634.193 543.098 631.398 542.803L630.061 536.61L633.172 536.107L631.24 536.028C629.249 534.232 629.896 529.073 629.055 526.293C627.805 522.133 627.748 520.825 627.187 516.586L618.559 495.01L618.954 495.384L689.034 458.181C685.686 458.289 673.012 447.792 669.901 445.234C664.677 440.938 656.056 436.936 649.604 433.631C646.816 432.201 641.578 429.004 639.193 428.034C635.277 426.446 633.639 423.249 630.191 422.207C626.11 420.979 623.99 418.895 619.04 417.695C617.229 417.257 613.73 416.891 612.875 415.978C612.236 415.296 610.878 410.554 613.141 409.792C609.887 407.191 612.689 371.354 613.12 365.081C614.061 351.696 617.862 337.851 619.823 324.646C610.203 324.71 601.48 325.156 593.405 330.925C589.755 333.533 578.13 343.118 576.118 346.078Z" fill="url(#paint0_radial_6010_14)"/>
</g>
<path fill-rule="evenodd" clip-rule="evenodd" d="M829.408 709.685C829.408 709.536 822.349 697.233 821.541 695.847C817.401 688.776 817.036 688.104 809.277 685.24C801.833 682.497 728.053 634.499 722.776 635.984C723.498 638.805 767.6 673.163 775.673 679.909C784.133 686.987 783.361 682.468 791.213 688.903C794.674 691.739 793.344 688.288 794.317 686.86L829.408 709.685Z" fill="#058C8E" fill-opacity="0.5"/>
<path fill-rule="evenodd" clip-rule="evenodd" d="M412.317 689.678C403.236 699.441 389.004 714.084 378.373 722.074C370.669 727.876 371.035 735.702 365.705 742.367C362.499 746.375 354.35 756.449 350.706 759.594C361.229 750.76 361.846 751.03 373.739 744.345C384.678 738.2 381.687 732.168 390.109 722.971C402.009 709.977 414.075 695.525 426.32 682.894C429.591 679.518 429.203 676.762 433.515 672.009C448.751 655.197 511.048 594.438 518.594 582.63H515.151L412.317 689.678Z" fill="#00B6B8" fill-opacity="0.5"/>
<path fill-rule="evenodd" clip-rule="evenodd" d="M569.22 685.112C569.457 693.54 566.561 701.702 568.013 711.373C568.745 716.237 577.302 723.443 580.787 727.459C589.136 737.065 599.439 749.495 604.331 761.285C602.542 750.601 573.638 710.676 579.508 702.787L580.787 707.241L582.432 702.327C590.098 698.67 595.185 697.147 601.608 691.004C604.353 688.382 616.538 678.524 617.53 676.405C608.937 679.243 587.483 701.386 578.89 701.3C581.391 697.952 590.235 697.133 588.812 693.669C587.217 689.79 588.036 697.219 577.59 698.404L574.702 682.124C568.07 683.719 576.476 695.128 576.167 701.817C571.727 703.872 572.64 699.396 572.539 699.044C571.828 696.622 572.74 699.877 571.325 697.334C571.066 696.867 569.823 687.462 569.22 685.112Z" fill="#058C8E" fill-opacity="0.5"/>
<path fill-rule="evenodd" clip-rule="evenodd" d="M246.342 458.845C246.206 458.93 264.828 467.827 268.842 468.96C279.004 471.818 291.96 470.82 300.47 473.102C308.112 475.147 308.262 470.949 315.027 473.166C318.977 474.463 352.861 479.517 360.969 481.107C380.998 485.041 400.841 488.442 420.756 492.904C433.216 495.691 451.084 500.082 463.501 503.846C473.965 507.018 501.071 588.259 503.858 595.11H505.237L471.387 506.419L471.135 504.673L522.089 517.803C527.037 518.01 526.865 505.421 534.808 497.744C536.661 495.941 535.742 497.081 537.128 494.75C539.598 490.594 537.925 495.684 539.792 492.369C537.58 487.109 537.867 489.368 535.598 486.346C534.621 485.049 535.304 482.005 532.172 480.344C526.118 477.129 523.052 483.395 516.99 475.447L521.314 464.469C525.86 466.843 542.851 477.628 545.071 477.578C547.721 477.521 549.222 472.831 556.877 471.605C562.141 470.763 562.12 465.032 566.616 463.186L567.599 457.754L566.508 462.78L550.205 470.877C539.929 466.658 542.737 473.137 535.339 467.556C531.935 464.975 525.343 462.872 521.249 460.577C514.276 456.664 501.377 446.078 496.12 443.883L513.888 458.196C513.285 460.884 506.843 464.797 503.754 464.22C501.097 463.721 496.429 458.959 493.794 457.12C486.985 452.38 480.608 446.449 474.216 441.131C459.853 429.184 450.481 418.805 439.464 404.634C436.584 400.927 425.561 389.843 421.912 387.02C418.515 384.397 420.605 380.041 416.598 376.484C413.301 373.548 415.169 370.924 413.186 367.132C403.534 348.705 421.539 338.818 434.502 326.75C455.494 307.204 491.359 281.457 515.576 265.204C525.946 258.24 549.688 242.458 560.403 238.217C563.29 237.069 562.493 239.792 564.878 237.846C569.409 234.139 565.158 235.116 572.763 233.298C580.333 231.495 574.429 231.509 575.478 230.083C576.684 228.458 587.83 226.562 588.979 227.111L581.044 230.083L580.038 232.3L591.069 228.643L586.236 272.932C586.071 265.896 589.274 255.211 590.394 248.104C591.759 239.379 592.52 231.345 593.841 222.727C595.062 214.722 598.61 205.647 599.335 198.975C599.859 194.149 602.373 191.59 600.994 187.007C599.465 181.91 599.558 179.095 598.603 174.254C598.359 174.547 591.263 194.734 590.689 196.837C589.618 200.736 587.536 204.878 587.701 208.72C587.816 211.279 588.893 220.496 588.153 222.085C585.755 224.359 574.623 222.705 569.481 223.896C564.784 224.979 558.694 227.995 554.385 230.29C546.471 234.503 537.515 243.178 529.213 248.617C510.426 260.913 497.37 273.274 480.019 285.862C471.925 291.729 464.456 299.442 456.657 305.465C440.211 318.182 424.957 332.011 408.145 343.381C406.034 344.813 394.78 350.758 394.615 351.101C390.931 358.892 391.045 351.714 383.268 352.12L418.185 388.232L415.959 391.333L419.679 389.629C424.857 393.692 433.439 408.619 437.08 410.743C447.687 416.93 449.842 419.71 458.488 428.521C465.06 435.222 472.033 441.815 478.425 448.609C481.297 451.652 499.984 464.433 498.735 467.299C496.3 467.356 473.67 447.846 470.051 444.752C465.311 440.703 446.359 420.78 443.407 419.368C450.215 428.628 505.04 482.169 513.507 481.819C513.996 480.251 514.261 477.436 515.712 476.58L520.768 481.898C525.264 483.088 537.415 485.063 535.454 492.519L529.522 493.517C528.675 500.004 532.639 498.229 528.74 503.882C526.405 507.275 525.673 510.482 523.985 513.761C517.17 513.17 497.305 507.032 489.046 505.1C477.089 502.306 465.103 499.711 453.152 496.953C441.145 494.18 428.591 492.091 416.813 489.197C414.831 488.712 403.556 485.255 403.542 485.305C402.838 487.586 391.871 482.767 388.963 482.083C379.167 479.774 362.994 475.297 353.722 474.078C347.625 473.273 341.937 472.845 336.142 470.193C330.102 467.442 324.608 468.14 317.879 466.429C307.092 463.678 289.296 464.626 281.08 459.144C274.056 454.454 270.925 459.002 265.172 460.805C262.235 461.725 250.292 459.337 246.342 458.845Z" fill="#00B6B8" fill-opacity="0.5"/>
<path fill-rule="evenodd" clip-rule="evenodd" d="M518.941 585.431C522.117 586.731 526.988 587.809 529.187 589.31C534.769 593.133 532.42 594.9 535.473 597.86L541.753 594.433L542.364 595.748L544.289 595.41L568.085 606.64C568.573 608.76 569.127 643.024 568.43 646.515C567.158 652.939 567.194 659.57 567.115 666.008C567.014 673.94 569.278 677.46 569.206 685.112C569.809 687.468 571.052 696.866 571.311 697.333C572.726 699.876 571.814 696.622 572.525 699.043C572.626 699.395 571.713 703.871 576.153 701.809C576.462 695.127 568.056 683.718 574.695 682.123L577.576 698.404C588.023 697.211 587.203 689.789 588.799 693.669C590.221 697.132 581.377 697.958 578.876 701.299C587.469 701.385 608.923 679.242 617.516 676.404L653.353 649.885L653.641 650.338L611.43 675.369C610.173 676.821 595.739 683.373 593.72 683.409C586.902 683.553 587.958 682.41 584.48 687.67C583.101 689.76 579.329 692.9 577.605 692.225L570.42 593.535L568.832 600.993L568.257 603.508C563.156 603.27 546.437 595.676 543.147 592.055C539.712 588.276 535.869 587.557 530.889 587.924C527.527 588.168 521.118 584.346 518.18 582.571L518.941 585.431Z" fill="#058C8E" fill-opacity="0.5"/>
<path fill-rule="evenodd" clip-rule="evenodd" d="M675.391 551.898L673.501 578.747C679.206 581.053 676.576 581.219 676.49 589.007C676.433 593.756 677.043 596.845 672.804 599.82L672.064 600.84L630.005 570.592C625.155 571.763 658.694 593.016 661.445 594.891C666.942 598.634 672.783 603.06 678.186 607.026C683.826 611.172 690.314 614.556 696.895 618.04L708.383 625.75C708.484 623.587 698.526 616.129 696.766 615.878C693.597 615.418 687.454 609.878 686.369 605.97L685.852 606.89L677.927 602.464L679.012 604.655L675.434 602.255C676.311 599.698 677.101 603.125 676.929 598.821L679.379 580.356C680.075 576.649 692.771 571.957 696.593 569.924C698.353 568.99 704.432 564.938 705.495 564.658C708.29 563.925 711.458 567.841 714.462 562.646C718.449 555.741 713.808 559.679 720.073 556.424C720.978 555.95 726.633 550.41 727.092 549.325C720.964 549.448 722.544 552.638 718.291 553.909C710.467 556.237 715.223 556.517 711.487 552.659C709.914 554.348 709.195 558.184 705.136 560.591C702.046 562.423 700.43 564.449 697.154 566.526C692.606 569.407 682.777 574.465 677.683 574.142L678.373 552.824L675.391 551.898Z" fill="#058C8E" fill-opacity="0.5"/>
<path fill-rule="evenodd" clip-rule="evenodd" d="M689.054 458.181C695.312 456.076 655.293 430.477 651.923 428.357L647.569 430.319C649.179 425.491 648.094 426.31 642.777 423.328C634.112 418.457 622.559 409.756 613.162 409.792C610.899 410.554 612.256 415.295 612.896 415.978C613.751 416.891 617.25 417.257 619.06 417.702C624.011 418.895 626.123 420.979 630.211 422.207C633.66 423.249 635.298 426.446 639.214 428.034C641.599 429.004 646.844 432.201 649.624 433.631C656.076 436.936 664.698 440.938 669.928 445.234C673.032 447.792 685.713 458.289 689.054 458.181Z" fill="#068A8C" fill-opacity="0.3"/>
<path fill-rule="evenodd" clip-rule="evenodd" d="M578.656 334.844L576.127 346.08C578.139 343.12 589.764 333.536 593.413 330.928C601.489 325.159 610.211 324.713 619.832 324.648L621.412 317.758C600.95 310.969 582.974 335.066 578.656 334.844Z" fill="#068A8C" fill-opacity="0.3"/>
<path fill-rule="evenodd" clip-rule="evenodd" d="M633.191 536.107L630.08 536.61L631.416 542.803C634.211 543.098 640.224 541.841 644.226 541.891C654.716 542.02 650.276 539.491 655.449 539.348C665.098 539.082 659.113 539.003 665.342 535.604C667.024 534.692 674.036 531.897 674.92 531.02L674.862 530.618L675.401 524.648C668.755 524.051 661.333 532.896 655.794 532.429C648.322 531.796 654.192 535.899 645.606 535.288C640.519 534.929 638.263 535.216 633.191 536.107Z" fill="#068A8C" fill-opacity="0.3"/>
<path fill-rule="evenodd" clip-rule="evenodd" d="M517.112 474.426L519.634 470.41L544.342 483.78L550.384 478.076C554.02 476.057 556.053 477.846 558.841 475.733C562.821 472.709 566.823 467.255 566.758 462.068C562.261 463.929 562.282 469.705 557.016 470.553C549.364 471.789 547.855 476.517 545.204 476.574C542.984 476.624 525.985 465.754 521.437 463.361L517.112 474.426Z" fill="#068A8C" fill-opacity="0.3"/>
<path fill-rule="evenodd" clip-rule="evenodd" d="M471.46 505.648L472.603 509.822L522.515 522.819L524.814 517.891L522.185 517.115L471.209 503.887L471.46 505.648Z" fill="#068A8C" fill-opacity="0.3"/>
<path fill-rule="evenodd" clip-rule="evenodd" d="M572.144 559.201C569.22 561.414 568.372 556.377 568.861 569.202L569.249 565.732C573.61 566.414 575.851 563.519 580.68 564.517C587.182 565.861 583.374 564.323 590.487 562.807C594.28 561.996 593.562 559.596 599.159 557.792C602.593 556.693 610.884 558.303 611.014 556.291C610.195 555.256 604.052 551.958 602.421 551.42C598.325 550.047 596.752 552.052 593.009 554.013C587.57 556.858 578.366 558.303 572.144 559.201Z" fill="#058C8E" fill-opacity="0.5"/>
<path fill-rule="evenodd" clip-rule="evenodd" d="M582.748 294.603L582.971 297.405L580.234 324.161L581.8 325.533L610.912 313.585L622.94 316.107L630.017 283.955L626.812 304.072C626.94 304.115 627.099 304.166 627.285 304.226C630.194 305.165 639.519 308.174 634.054 311.659C631.94 313.01 630.97 312.753 630.183 312.545C628.941 312.216 628.158 312.009 624.053 318.449C622.821 320.376 622.109 325.246 621.563 328.989C621.386 330.199 621.226 331.291 621.072 332.129C621.034 332.333 620.996 332.541 620.957 332.752C620.545 334.971 620.082 337.465 620.482 339.414C620.83 341.124 620.898 341.417 620.792 341.511C620.631 341.652 620.074 341.342 619.469 344.731C617.774 354.229 615.482 399.241 617.371 407.525C618.715 408.819 657.283 426.299 661.378 427.664C672.442 431.35 683.248 438.995 691.583 447.006C691.978 447.379 697.503 452.373 697.524 452.38C700.269 452.516 721.141 438.951 724.891 436.422C727.935 434.37 730.376 432.489 732.61 430.767C738.377 426.322 742.764 422.941 752.567 420.429C758.611 418.88 769.523 422.305 778.59 425.151C782.058 426.239 785.256 427.243 787.808 427.851C798.025 430.28 818.911 430.323 829.594 429.547C824.884 431.29 821.956 431.126 819.105 430.966C814.885 430.729 810.832 430.501 801.416 436.487C792.396 442.216 788.047 441.531 785.13 441.072C783.793 440.861 782.756 440.698 781.708 441.222C780.729 441.714 780.318 442.164 779.929 442.59C779.341 443.234 778.803 443.822 776.434 444.419C770.542 445.899 765.019 446.245 759.517 446.59C755.111 446.866 750.717 447.141 746.158 447.997C745.246 448.168 743.631 448.341 741.811 448.537C738.05 448.94 733.414 449.438 732.306 450.203C727.774 453.331 726.667 453.379 724.33 453.481C723.103 453.535 721.536 453.603 718.957 454.14C714.674 455.035 711.388 456.753 707.903 458.575C704.057 460.585 699.969 462.722 694.033 464.019C691.158 464.643 675.37 471.771 670.564 473.94C670.336 474.043 670.133 474.135 669.957 474.214C667.451 475.348 664.738 476.539 661.906 477.783C649.176 483.373 634.013 490.03 624.24 497.371C625.461 503.162 628.96 512.667 632.467 517.43C639.317 526.742 639.968 526.788 640.659 526.837C641.023 526.862 641.398 526.889 642.698 528.272C643.626 529.26 643.831 529.939 644.032 530.605C644.221 531.232 644.406 531.847 645.191 532.698C646.02 532.65 646.712 531.328 647.51 529.805C649.208 526.562 651.384 522.408 656.37 527.697C658.217 529.651 664.684 526.363 668.879 524.23C670.037 523.641 671.021 523.14 671.688 522.862C672.071 522.702 672.459 522.551 672.844 522.402C675.164 521.503 677.381 520.643 677.917 517.833C677.972 517.545 678.33 517.633 678.916 517.776C679.794 517.99 681.183 518.33 682.824 517.718C685.789 516.613 687.595 515.521 689.367 514.45C691.801 512.98 694.172 511.547 699.392 510.167C702.23 509.412 714.437 504.57 715.07 501.954C716.019 498.005 716.492 498.299 717.778 499.096C719.138 499.939 721.408 501.346 726.113 498.894C727.509 498.165 729.206 497.66 730.847 497.171C732.719 496.613 734.517 496.078 735.711 495.258C736.843 494.483 737.264 493.736 737.719 492.929C738.326 491.85 738.993 490.665 741.495 489.166C742.359 488.648 743.184 487.806 743.903 487.071C744.941 486.011 745.759 485.176 746.158 485.868C747.203 487.667 747.278 488.934 747.95 489.537C749.237 490.693 752.711 489.411 769.379 484.761C769.854 484.628 770.466 484.467 771.154 484.286C773.827 483.582 777.651 482.576 779.086 481.679C779.693 481.306 779.536 480.772 779.399 480.306C779.217 479.686 779.07 479.187 780.81 479.351C783.732 479.62 793.977 476.18 802.445 473.336C806.866 471.851 810.803 470.529 812.962 469.982C827.553 466.285 841.457 459.041 855.168 451.899C865.512 446.51 875.746 441.179 886.081 437.471C885.88 437.718 885.679 437.964 885.479 438.211C881.249 443.414 877.002 448.639 870.705 447.034C869.364 446.691 866.252 449.356 862.947 452.186C860.515 454.269 857.98 456.44 855.97 457.567C853.83 458.767 849.985 461.6 846.384 464.253C844.143 465.904 841.996 467.485 840.415 468.56C837.404 470.6 823.976 474.027 820.031 474.681C818.523 474.931 817.114 475.155 815.791 475.366C801.184 477.692 797.087 478.344 785.947 492.528C780.343 499.663 767.116 514.521 759.989 519.485C761.389 517.122 766.363 512.109 770.876 507.56C773.634 504.781 776.22 502.175 777.713 500.453C779.085 498.871 780.363 497.177 781.646 495.478C783.031 493.643 784.422 491.801 785.94 490.085C788.904 486.736 789.688 485.919 790.24 484.967C790.762 484.069 791.079 483.051 792.83 479.675C786.788 479.83 777.763 483.125 769.485 486.148C765.123 487.741 760.969 489.258 757.567 490.2C751.957 491.755 745.674 494.168 740.203 496.269L740.159 496.286C729.048 500.535 727.362 500.443 727.002 501.09C726.791 501.469 727.037 502.104 726.098 504.024C725.268 503.325 725.116 502.711 725.018 502.312C724.844 501.604 724.838 501.579 721.486 502.982C718.754 504.126 716.137 505.371 713.488 506.63C710.082 508.249 706.624 509.894 702.805 511.381C700.003 512.48 679.699 521.576 678.205 522.603L679.34 538.302C679.051 539.488 678.568 540.215 678.156 540.835C677.377 542.006 676.855 542.791 678.391 545.559C680.955 550.168 678.607 550.052 675.741 549.911C675.426 549.895 675.106 549.879 674.785 549.87C674.811 548.934 675.086 547.322 675.41 545.419C676.322 540.061 677.628 532.395 674.892 531.017L674.828 530.614L675.367 524.644C671.885 524.331 668.19 526.609 664.664 528.781C661.46 530.756 658.397 532.644 655.76 532.425C652.145 532.119 651.651 532.921 651.133 533.762C650.58 534.659 650 535.6 645.572 535.285C640.485 534.925 638.229 535.213 633.156 536.104L631.247 536.025L631.237 536.028C631.236 536.027 631.235 536.026 631.233 536.025L631.224 536.025L631.231 536.022C629.976 534.877 629.776 532.393 629.586 530.019C629.475 528.643 629.368 527.305 629.06 526.286C627.969 522.676 627.781 521.214 627.385 518.119C627.325 517.652 627.26 517.147 627.186 516.591L627.171 516.583L618.543 495.007L618.938 495.38L689.011 458.178C695.276 456.073 655.257 430.473 651.887 428.354L647.533 430.315C648.829 426.427 648.378 426.201 645.375 424.703C644.65 424.341 643.775 423.905 642.741 423.325C640.859 422.267 638.841 421.028 636.738 419.738C629.16 415.086 620.482 409.761 613.125 409.789C610.044 407.321 612.396 374.932 613.025 366.265C613.059 365.797 613.088 365.399 613.111 365.078C613.687 356.819 615.358 348.384 617.012 340.033C618.039 334.85 619.059 329.699 619.807 324.642L621.388 317.752C606.766 312.901 593.415 323.82 585.408 330.367C582.209 332.983 579.864 334.901 578.631 334.837L581.261 304.36L580.37 304.209L579.371 309.691L580.363 301.529L580.708 304.015L581.484 303.807L582.748 294.603ZM629.888 518.124L629.901 518.131C630.002 516.317 629.532 515.675 629.132 515.13C628.742 514.598 628.42 514.158 628.761 512.809C628.758 512.805 628.755 512.8 628.752 512.796C628.404 514.158 628.727 514.6 629.119 515.134C629.518 515.678 629.987 516.317 629.888 518.124ZM635.778 532.782C635.755 532.789 635.736 532.799 635.723 532.8C635.738 532.795 635.757 532.786 635.778 532.782Z" fill="#058C8E" fill-opacity="0.5"/>
<defs>
<filter id="filter0_dd_6010_14" x="204.083" y="136.696" width="754.372" height="754.372" filterUnits="userSpaceOnUse" color-interpolation-filters="sRGB">
<feFlood flood-opacity="0" result="BackgroundImageFix"/>
<feColorMatrix in="SourceAlpha" type="matrix" values="0 0 0 0 0 0 0 0 0 0 0 0 0 0 0 0 0 0 127 0" result="hardAlpha"/>
<feOffset dx="9.41082" dy="9.41082"/>
<feGaussianBlur stdDeviation="14.0221"/>
<feComposite in2="hardAlpha" operator="out"/>
<feColorMatrix type="matrix" values="0 0 0 0 0.0627451 0 0 0 0 0.564706 0 0 0 0 0.572549 0 0 0 0.5 0"/>
<feBlend mode="normal" in2="BackgroundImageFix" result="effect1_dropShadow_6010_14"/>
<feColorMatrix in="SourceAlpha" type="matrix" values="0 0 0 0 0 0 0 0 0 0 0 0 0 0 0 0 0 0 127 0" result="hardAlpha"/>
<feOffset dy="7.52866"/>
<feGaussianBlur stdDeviation="3.76433"/>
<feComposite in2="hardAlpha" operator="out"/>
<feColorMatrix type="matrix" values="0 0 0 0 0.0627451 0 0 0 0 0.564706 0 0 0 0 0.572549 0 0 0 0.5 0"/>
<feBlend mode="normal" in2="effect1_dropShadow_6010_14" result="effect2_dropShadow_6010_14"/>
<feBlend mode="normal" in="SourceGraphic" in2="effect2_dropShadow_6010_14" result="shape"/>
</filter>
<filter id="filter1_dddddd_6010_14" x="-295.585" y="-442.405" width="1751.67" height="1812.96" filterUnits="userSpaceOnUse" color-interpolation-filters="sRGB">
<feFlood flood-opacity="0" result="BackgroundImageFix"/>
<feColorMatrix in="SourceAlpha" type="matrix" values="0 0 0 0 0 0 0 0 0 0 0 0 0 0 0 0 0 0 127 0" result="hardAlpha"/>
<feOffset/>
<feGaussianBlur stdDeviation="9.13156"/>
<feColorMatrix type="matrix" values="0 0 0 0 0.0196078 0 0 0 0 0.54902 0 0 0 0 0.556863 0 0 0 1 0"/>
<feBlend mode="normal" in2="BackgroundImageFix" result="effect1_dropShadow_6010_14"/>
<feColorMatrix in="SourceAlpha" type="matrix" values="0 0 0 0 0 0 0 0 0 0 0 0 0 0 0 0 0 0 127 0" result="hardAlpha"/>
<feOffset/>
<feGaussianBlur stdDeviation="18.2631"/>
<feColorMatrix type="matrix" values="0 0 0 0 0.0196078 0 0 0 0 0.54902 0 0 0 0 0.556863 0 0 0 1 0"/>
<feBlend mode="normal" in2="effect1_dropShadow_6010_14" result="effect2_dropShadow_6010_14"/>
<feColorMatrix in="SourceAlpha" type="matrix" values="0 0 0 0 0 0 0 0 0 0 0 0 0 0 0 0 0 0 127 0" result="hardAlpha"/>
<feOffset/>
<feGaussianBlur stdDeviation="63.9209"/>
<feColorMatrix type="matrix" values="0 0 0 0 0.0196078 0 0 0 0 0.54902 0 0 0 0 0.556863 0 0 0 1 0"/>
<feBlend mode="normal" in2="effect2_dropShadow_6010_14" result="effect3_dropShadow_6010_14"/>
<feColorMatrix in="SourceAlpha" type="matrix" values="0 0 0 0 0 0 0 0 0 0 0 0 0 0 0 0 0 0 127 0" result="hardAlpha"/>
<feOffset/>
<feGaussianBlur stdDeviation="127.842"/>
<feColorMatrix type="matrix" values="0 0 0 0 0.0196078 0 0 0 0 0.54902 0 0 0 0 0.556863 0 0 0 1 0"/>
<feBlend mode="normal" in2="effect3_dropShadow_6010_14" result="effect4_dropShadow_6010_14"/>
<feColorMatrix in="SourceAlpha" type="matrix" values="0 0 0 0 0 0 0 0 0 0 0 0 0 0 0 0 0 0 127 0" result="hardAlpha"/>
<feOffset/>
<feGaussianBlur stdDeviation="219.157"/>
<feColorMatrix type="matrix" values="0 0 0 0 0.0196078 0 0 0 0 0.54902 0 0 0 0 0.556863 0 0 0 1 0"/>
<feBlend mode="normal" in2="effect4_dropShadow_6010_14" result="effect5_dropShadow_6010_14"/>
<feColorMatrix in="SourceAlpha" type="matrix" values="0 0 0 0 0 0 0 0 0 0 0 0 0 0 0 0 0 0 127 0" result="hardAlpha"/>
<feOffset/>
<feGaussianBlur stdDeviation="383.525"/>
<feColorMatrix type="matrix" values="0 0 0 0 0.0196078 0 0 0 0 0.54902 0 0 0 0 0.556863 0 0 0 1 0"/>
<feBlend mode="normal" in2="effect5_dropShadow_6010_14" result="effect6_dropShadow_6010_14"/>
<feBlend mode="normal" in="SourceGraphic" in2="effect6_dropShadow_6010_14" result="shape"/>
</filter>
<radialGradient id="paint0_radial_6010_14" cx="0" cy="0" r="1" gradientUnits="userSpaceOnUse" gradientTransform="translate(590.052 489.61) rotate(94.9192) scale(114.318 114.318)">
<stop offset="0.0415158" stop-color="#058C8E"/>
<stop offset="1" stop-color="#E2E2E2"/>
</radialGradient>
</defs>
</svg>
