<svg width="435" height="236" viewBox="0 0 435 236" fill="none" xmlns="http://www.w3.org/2000/svg">
<g filter="url(#filter0_dddddd_299_159)">
<ellipse cx="218.422" cy="117.961" rx="183.144" ry="83.5788" fill="url(#paint0_linear_299_159)" fill-opacity="0.5"/>
</g>
<g filter="url(#filter1_dddddd_299_159)">
<ellipse cx="228.342" cy="117.735" rx="173.224" ry="78.3996" fill="url(#paint1_linear_299_159)"/>
</g>
<path d="M221.253 112.083V118.828H230.126V120.399H221.253V127.684H219.439V110.515H231.204V112.086H221.253V112.083Z" fill="white"/>
<path d="M237.002 126.687C235.621 125.927 234.543 124.886 233.767 123.561C232.991 122.236 232.604 120.75 232.604 119.096C232.604 117.443 232.991 115.957 233.767 114.632C234.543 113.307 235.621 112.266 237.002 111.505C238.383 110.745 239.922 110.366 241.622 110.366C243.321 110.366 244.854 110.742 246.219 111.496C247.581 112.247 248.657 113.291 249.442 114.623C250.227 115.954 250.618 117.446 250.618 119.1C250.618 120.753 250.227 122.242 249.442 123.577C248.657 124.908 247.581 125.952 246.219 126.703C244.854 127.454 243.321 127.833 241.622 127.833C239.922 127.833 238.38 127.451 237.002 126.691V126.687ZM245.298 125.29C246.393 124.678 247.25 123.826 247.872 122.74C248.493 121.652 248.802 120.44 248.802 119.1C248.802 117.759 248.49 116.544 247.872 115.459C247.25 114.373 246.393 113.521 245.298 112.909C244.204 112.297 242.978 111.988 241.622 111.988C240.266 111.988 239.036 112.294 237.933 112.909C236.829 113.521 235.962 114.373 235.334 115.459C234.704 116.547 234.391 117.762 234.391 119.1C234.391 120.437 234.707 121.655 235.334 122.74C235.962 123.829 236.829 124.678 237.933 125.29C239.036 125.902 240.266 126.208 241.622 126.208C242.978 126.208 244.204 125.902 245.298 125.29Z" fill="white"/>
<path d="M268.194 110.511V127.681H266.7L255.67 113.752V127.681H253.856V110.511H255.351L266.406 124.441V110.511H268.197H268.194Z" fill="white"/>
<path d="M272.949 110.511H279.937C281.75 110.511 283.352 110.874 284.742 111.603C286.133 112.332 287.211 113.345 287.978 114.645C288.744 115.944 289.128 117.427 289.128 119.096C289.128 120.765 288.744 122.248 287.978 123.548C287.208 124.848 286.13 125.861 284.742 126.589C283.355 127.318 281.753 127.681 279.937 127.681H272.949V110.511ZM279.836 126.113C281.34 126.113 282.655 125.813 283.781 125.217C284.909 124.621 285.783 123.794 286.404 122.74C287.025 121.686 287.334 120.472 287.334 119.099C287.334 117.727 287.025 116.512 286.404 115.458C285.783 114.405 284.909 113.578 283.781 112.982C282.655 112.386 281.337 112.086 279.836 112.086H274.762V126.113H279.836Z" fill="white"/>
<path d="M295.244 126.687C293.862 125.927 292.784 124.886 292.008 123.561C291.233 122.236 290.845 120.75 290.845 119.096C290.845 117.443 291.233 115.957 292.008 114.632C292.784 113.307 293.862 112.266 295.244 111.505C296.625 110.745 298.163 110.366 299.863 110.366C301.563 110.366 303.095 110.742 304.46 111.496C305.823 112.247 306.898 113.291 307.683 114.623C308.468 115.954 308.859 117.446 308.859 119.1C308.859 120.753 308.468 122.242 307.683 123.577C306.898 124.908 305.823 125.952 304.46 126.703C303.095 127.454 301.563 127.833 299.863 127.833C298.163 127.833 296.621 127.451 295.244 126.691V126.687ZM303.54 125.29C304.634 124.678 305.492 123.826 306.113 122.74C306.734 121.652 307.043 120.44 307.043 119.1C307.043 117.759 306.731 116.544 306.113 115.459C305.492 114.373 304.634 113.521 303.54 112.909C302.446 112.297 301.219 111.988 299.863 111.988C298.507 111.988 297.277 112.294 296.174 112.909C295.07 113.521 294.203 114.373 293.575 115.459C292.945 116.547 292.633 117.762 292.633 119.1C292.633 120.437 292.948 121.655 293.575 122.74C294.203 123.829 295.07 124.678 296.174 125.29C297.277 125.902 298.507 126.208 299.863 126.208C301.219 126.208 302.446 125.902 303.54 125.29Z" fill="white"/>
<path d="M313.16 127.214C311.99 126.804 311.088 126.264 310.451 125.595L311.161 124.198C311.782 124.819 312.608 125.321 313.636 125.706C314.664 126.091 315.727 126.283 316.824 126.283C318.36 126.283 319.514 126.002 320.28 125.438C321.046 124.873 321.431 124.141 321.431 123.242C321.431 122.554 321.223 122.008 320.807 121.598C320.39 121.188 319.879 120.875 319.274 120.655C318.669 120.434 317.83 120.194 316.748 119.932C315.459 119.604 314.428 119.292 313.658 118.989C312.889 118.686 312.233 118.225 311.684 117.604C311.136 116.982 310.864 116.14 310.864 115.077C310.864 114.209 311.091 113.42 311.552 112.71C312.009 112 312.712 111.432 313.658 111.007C314.604 110.581 315.783 110.369 317.187 110.369C318.167 110.369 319.126 110.505 320.066 110.773C321.005 111.041 321.819 111.414 322.503 111.89L321.891 113.338C321.172 112.865 320.403 112.508 319.586 112.272C318.77 112.035 317.969 111.915 317.183 111.915C315.679 111.915 314.547 112.205 313.787 112.786C313.027 113.366 312.649 114.114 312.649 115.029C312.649 115.717 312.857 116.269 313.273 116.686C313.69 117.102 314.213 117.421 314.844 117.642C315.471 117.862 316.319 118.105 317.379 118.364C318.637 118.673 319.656 118.982 320.431 119.282C321.207 119.585 321.866 120.042 322.405 120.655C322.944 121.267 323.212 122.096 323.212 123.144C323.212 124.011 322.979 124.8 322.512 125.51C322.046 126.22 321.33 126.785 320.368 127.201C319.403 127.618 318.218 127.826 316.815 127.826C315.541 127.826 314.317 127.621 313.15 127.214H313.16Z" fill="white"/>
<mask id="mask0_299_159" style="mask-type:luminance" maskUnits="userSpaceOnUse" x="80" y="89" width="246" height="58">
<path d="M325.604 89.2371H80.5674V146.232H325.604V89.2371Z" fill="white"/>
</mask>
<g mask="url(#mask0_299_159)">
<path d="M101.971 106.886L101.123 99.8946C100.183 100.005 98.8999 100.276 97.9697 100.567L100.041 107.293C100.663 107.103 101.312 106.968 101.971 106.886Z" fill="white"/>
<path d="M86.2591 111.123C85.8839 111.994 85.4771 113.24 85.2627 114.193L92.121 115.765C92.2692 115.121 92.4742 114.49 92.7296 113.887L86.256 111.126L86.2591 111.123Z" fill="white"/>
<path d="M90.702 132.018L95.4917 126.86C95.0061 126.406 94.5615 125.914 94.1674 125.396L88.542 129.624C89.1064 130.384 89.983 131.359 90.702 132.021" fill="white"/>
<path d="M104.847 129.896L105.695 136.887C106.638 136.776 107.918 136.505 108.848 136.215L106.776 129.489C106.152 129.678 105.506 129.814 104.847 129.896Z" fill="white"/>
<path d="M120.56 125.662C120.936 124.791 121.342 123.545 121.557 122.592L114.698 121.021C114.547 121.664 114.342 122.295 114.09 122.898L120.563 125.659L120.56 125.662Z" fill="white"/>
<path d="M116.117 104.769L111.327 109.927C111.813 110.381 112.257 110.874 112.652 111.391L118.277 107.163C117.712 106.403 116.836 105.428 116.117 104.766" fill="white"/>
<path d="M101.971 106.886L101.123 99.8946C100.183 100.005 98.8999 100.276 97.9697 100.567L100.041 107.293C100.663 107.103 101.312 106.968 101.971 106.886Z" fill="white"/>
<path d="M86.2591 111.123C85.8839 111.994 85.4771 113.24 85.2627 114.193L92.121 115.765C92.2692 115.121 92.4742 114.49 92.7296 113.887L86.256 111.126L86.2591 111.123Z" fill="white"/>
<path d="M90.702 132.018L95.4917 126.86C95.0061 126.406 94.5615 125.914 94.1674 125.396L88.542 129.624C89.1064 130.384 89.983 131.359 90.702 132.021" fill="white"/>
<path d="M104.847 129.896L105.695 136.887C106.638 136.776 107.918 136.505 108.848 136.215L106.776 129.489C106.152 129.678 105.506 129.814 104.847 129.896Z" fill="white"/>
<path d="M120.56 125.662C120.936 124.791 121.342 123.545 121.557 122.592L114.698 121.021C114.547 121.664 114.342 122.295 114.09 122.898L120.563 125.659L120.56 125.662Z" fill="white"/>
<path d="M116.117 104.769L111.327 109.927C111.813 110.381 112.257 110.874 112.652 111.391L118.277 107.163C117.712 106.403 116.836 105.428 116.117 104.766" fill="white"/>
<path d="M94.1673 111.397C94.5678 110.867 95.0124 110.375 95.4854 109.927L93.5556 107.851L89.8379 103.901C89.0086 104.677 88.2456 105.529 87.5645 106.428L88.8794 107.428L94.1673 111.397Z" fill="white"/>
<path d="M85.1301 126.141L86.6847 125.488L92.7326 122.907C92.4803 122.311 92.2754 121.677 92.1272 121.027L89.3618 121.661L84.0801 122.907C84.3355 124.008 84.6887 125.097 85.1333 126.141" fill="white"/>
<path d="M100.045 129.492L99.1902 132.277L97.6514 137.401C98.7329 137.729 99.8523 137.965 100.978 138.101L101.196 136.385L101.978 129.899C101.315 129.817 100.666 129.681 100.045 129.492Z" fill="white"/>
<path d="M112.651 125.387C112.251 125.917 111.809 126.409 111.333 126.857L113.301 128.974L116.98 132.886C117.81 132.11 118.573 131.261 119.254 130.359L117.908 129.334L112.654 125.387H112.651Z" fill="white"/>
<path d="M121.689 110.644L120.138 111.297L114.09 113.881C114.342 114.481 114.547 115.112 114.695 115.762L117.546 115.109L122.742 113.881C122.487 112.78 122.134 111.691 121.689 110.647" fill="white"/>
<path d="M106.774 107.293L107.616 104.548L109.167 99.3834C108.086 99.0553 106.966 98.8187 105.84 98.683L105.632 100.317L104.841 106.886C105.503 106.968 106.153 107.103 106.774 107.293Z" fill="white"/>
<path d="M94.1673 111.397C94.5678 110.867 95.0124 110.375 95.4854 109.927L93.5556 107.851L89.8379 103.901C89.0086 104.677 88.2456 105.529 87.5645 106.428L88.8794 107.428L94.1673 111.397Z" fill="white"/>
<path d="M85.1301 126.141L86.6847 125.488L92.7326 122.907C92.4803 122.311 92.2754 121.677 92.1272 121.027L89.3618 121.661L84.0801 122.907C84.3355 124.008 84.6887 125.097 85.1333 126.141" fill="white"/>
<path d="M100.045 129.492L99.1902 132.277L97.6514 137.401C98.7329 137.729 99.8523 137.965 100.978 138.101L101.196 136.385L101.978 129.899C101.315 129.817 100.666 129.681 100.045 129.492Z" fill="white"/>
<path d="M112.651 125.387C112.251 125.917 111.809 126.409 111.333 126.857L113.301 128.974L116.98 132.886C117.81 132.11 118.573 131.261 119.254 130.359L117.908 129.334L112.654 125.387H112.651Z" fill="white"/>
<path d="M121.689 110.644L120.138 111.297L114.09 113.881C114.342 114.481 114.547 115.112 114.695 115.762L117.546 115.109L122.742 113.881C122.487 112.78 122.134 111.691 121.689 110.647" fill="white"/>
<path d="M106.774 107.293L107.616 104.548L109.167 99.3834C108.086 99.0553 106.966 98.8187 105.84 98.683L105.632 100.317L104.841 106.886C105.503 106.968 106.153 107.103 106.774 107.293Z" fill="white"/>
<path d="M96.321 97.8248C95.1322 98.235 93.9718 98.7523 92.8682 99.3612L96.5795 106.027C97.2827 105.636 98.0206 105.305 98.7931 105.037L96.321 97.8248Z" fill="white"/>
<path d="M82.0617 114.25C81.8252 115.481 81.6927 116.746 81.6738 118.011L89.3236 118.131C89.3362 117.308 89.4213 116.506 89.5695 115.724L82.0617 114.253V114.25Z" fill="white"/>
<path d="M89.1562 134.814C90.1085 135.644 91.1365 136.391 92.2117 137.038L96.1438 130.463C95.4501 130.044 94.7974 129.57 94.1888 129.04L89.1562 134.817V134.814Z" fill="white"/>
<path d="M110.498 138.96C111.687 138.549 112.847 138.032 113.951 137.423L110.224 130.725C109.524 131.114 108.786 131.445 108.017 131.71L110.501 138.96H110.498Z" fill="white"/>
<path d="M124.756 122.535C124.993 121.305 125.125 120.039 125.144 118.774L117.494 118.654C117.479 119.475 117.394 120.279 117.242 121.062L124.756 122.535Z" fill="white"/>
<path d="M117.662 101.97C116.71 101.141 115.682 100.393 114.607 99.7463L110.693 106.293C111.387 106.712 112.043 107.192 112.652 107.722L117.662 101.97Z" fill="white"/>
<path d="M92.2029 99.7492C91.1245 100.399 90.0966 101.147 89.1475 101.973L94.1643 107.725C94.7728 107.195 95.4256 106.715 96.1193 106.295L92.2029 99.7492Z" fill="white"/>
<path d="M81.6738 118.784C81.6864 119.421 81.7243 120.055 81.7873 120.667C81.8504 121.283 81.945 121.914 82.068 122.542L89.5759 121.065C89.4245 120.283 89.3394 119.481 89.3236 118.657L81.6738 118.781V118.784Z" fill="white"/>
<path d="M92.8811 137.423C93.9816 138.032 95.142 138.553 96.3307 138.963L98.8092 131.71C98.0398 131.445 97.3019 131.114 96.6019 130.725L92.8779 137.423H92.8811Z" fill="white"/>
<path d="M114.616 137.035C115.694 136.385 116.722 135.637 117.671 134.811L112.636 129.038C112.027 129.564 111.374 130.041 110.681 130.46L114.616 137.038V137.035Z" fill="white"/>
<path d="M125.145 118.002C125.132 117.364 125.094 116.73 125.031 116.118C124.968 115.503 124.874 114.872 124.751 114.24L117.249 115.714C117.397 116.497 117.482 117.301 117.495 118.122L125.145 117.999V118.002Z" fill="white"/>
<path d="M110.296 105.92L113.941 99.3615C112.84 98.7526 111.68 98.232 110.491 97.8219L108.025 105.037C108.795 105.305 109.536 105.636 110.239 106.028L110.299 105.92H110.296Z" fill="white"/>
<path d="M92.2029 99.7492C91.1245 100.399 90.0966 101.147 89.1475 101.973L94.1643 107.725C94.7728 107.195 95.4256 106.715 96.1193 106.295L92.2029 99.7492Z" fill="white"/>
<path d="M81.6738 118.784C81.6864 119.421 81.7243 120.055 81.7873 120.667C81.8504 121.283 81.945 121.914 82.068 122.542L89.5759 121.065C89.4245 120.283 89.3394 119.481 89.3236 118.657L81.6738 118.781V118.784Z" fill="white"/>
<path d="M92.8811 137.423C93.9816 138.032 95.142 138.553 96.3307 138.963L98.8092 131.71C98.0398 131.445 97.3019 131.114 96.6019 130.725L92.8779 137.423H92.8811Z" fill="white"/>
<path d="M114.616 137.035C115.694 136.385 116.722 135.637 117.671 134.811L112.636 129.038C112.027 129.564 111.374 130.041 110.681 130.46L114.616 137.038V137.035Z" fill="white"/>
<path d="M125.145 118.002C125.132 117.364 125.094 116.73 125.031 116.118C124.968 115.503 124.874 114.872 124.751 114.24L117.249 115.714C117.397 116.497 117.482 117.301 117.495 118.122L125.145 117.999V118.002Z" fill="white"/>
<path d="M110.296 105.92L113.941 99.3615C112.84 98.7526 111.68 98.232 110.491 97.8219L108.025 105.037C108.795 105.305 109.536 105.636 110.239 106.028L110.299 105.92H110.296Z" fill="white"/>
<path d="M85.597 105.927C84.8749 106.959 84.238 108.06 83.7051 109.199L90.6359 112.413C90.9796 111.678 91.3832 110.975 91.8436 110.315L85.597 105.927Z" fill="white"/>
<path d="M83.708 127.595C84.2378 128.731 84.8747 129.832 85.6 130.867L91.8654 126.46C91.4051 125.8 90.9983 125.1 90.6546 124.368L83.708 127.595Z" fill="white"/>
<path d="M121.222 130.861C121.944 129.829 122.581 128.728 123.113 127.589L116.167 124.365C115.823 125.1 115.416 125.8 114.956 126.457L121.222 130.861Z" fill="white"/>
<path d="M123.114 109.189C122.584 108.053 121.947 106.952 121.222 105.917L114.976 110.312C115.436 110.971 115.84 111.675 116.183 112.41L123.114 109.189Z" fill="white"/>
<path d="M104.62 104.314L105.295 96.7207C104.68 96.6671 104.056 96.6418 103.441 96.6418C102.826 96.6418 102.158 96.6702 101.518 96.727L102.196 104.318C102.596 104.283 103 104.264 103.41 104.264C103.819 104.264 104.22 104.283 104.617 104.314" fill="white"/>
<path d="M102.204 132.429L101.526 140.064C102.166 140.121 102.803 140.146 103.421 140.146C104.039 140.146 104.67 140.117 105.307 140.064L104.623 132.429C104.222 132.464 103.819 132.483 103.412 132.483C103.005 132.483 102.605 132.464 102.207 132.432" fill="white"/>
<path d="M148.845 118.531C150.652 119.065 152.222 120.551 152.222 123.024C152.222 125.898 150.175 128.451 145.55 128.451H137.55V109.836H145.575C148.924 109.836 151.235 112.098 151.235 114.676C151.235 116.749 149.854 118.052 148.842 118.424V118.531H148.845ZM144.727 117.203C145.95 117.203 146.745 116.458 146.745 115.367C146.745 114.275 145.975 113.531 144.698 113.531H142.015V117.2H144.727V117.203ZM145.152 124.753C146.694 124.753 147.517 123.876 147.517 122.627C147.517 121.298 146.612 120.5 145.152 120.5H142.015V124.756H145.152V124.753Z" fill="white"/>
<path d="M163.485 128.451H159.02V121.112L152.083 109.836H157.239L160.108 114.887C160.773 116.058 161.331 117.067 161.357 117.096H161.436C161.464 117.071 162.022 116.033 162.684 114.887L165.661 109.836H170.419L163.482 121.112V128.451H163.485Z" fill="white"/>
<path d="M186.494 123.903C186.494 119.489 186.548 117.309 186.548 117.283H186.494C186.469 117.309 185.564 118.984 184.662 120.58L182.855 123.852H180.358L178.551 120.634C177.621 118.984 176.744 117.309 176.719 117.283H176.637C176.637 117.309 176.691 119.489 176.691 123.903V128.449H172.226V109.838H176.955L181.635 118.161H181.714L186.418 109.838H190.962V128.449H186.497V123.903H186.494Z" fill="white"/>
<path d="M198.609 125.368L197.493 128.451H192.788L199.965 109.836H205.038L212.244 128.451H207.46L206.344 125.368H198.609ZM203.55 117.604C202.967 116.061 202.541 114.89 202.516 114.865H202.437C202.412 114.894 201.983 116.036 201.4 117.579L200.072 121.301H204.881L203.553 117.607L203.55 117.604Z" fill="white"/>
</g>
<path d="M335.267 106.571V131.095" stroke="white" stroke-width="0.187809" stroke-miterlimit="10"/>
<path d="M345.606 125.754C344.389 124.504 343.78 122.684 343.78 120.296V110.658H345.559V120.227C345.559 122.183 346 123.64 346.88 124.602C347.76 125.565 349.034 126.044 350.698 126.044C352.363 126.044 353.663 125.565 354.542 124.602C355.422 123.64 355.863 122.183 355.863 120.227V110.658H357.595V120.296C357.595 122.684 356.989 124.501 355.782 125.754C354.571 127.003 352.877 127.628 350.698 127.628C348.52 127.628 346.823 127.003 345.606 125.754Z" fill="white"/>
<path d="M374.291 112.197C375.509 113.223 376.117 114.633 376.117 116.428C376.117 118.223 375.509 119.63 374.291 120.646C373.074 121.665 371.394 122.173 369.246 122.173H364.728V127.486H362.949V110.658H369.243C371.39 110.658 373.071 111.172 374.288 112.197H374.291ZM373.021 119.517C373.9 118.788 374.342 117.759 374.342 116.428C374.342 115.097 373.9 114.021 373.021 113.292C372.141 112.563 370.867 112.197 369.199 112.197H364.731V120.611H369.199C370.864 120.611 372.138 120.249 373.021 119.517Z" fill="white"/>
<defs>
<filter id="filter0_dddddd_299_159" x="0.663605" y="0.768036" width="433.516" height="234.385" filterUnits="userSpaceOnUse" color-interpolation-filters="sRGB">
<feFlood flood-opacity="0" result="BackgroundImageFix"/>
<feColorMatrix in="SourceAlpha" type="matrix" values="0 0 0 0 0 0 0 0 0 0 0 0 0 0 0 0 0 0 127 0" result="hardAlpha"/>
<feOffset dx="-1"/>
<feGaussianBlur stdDeviation="0.400164"/>
<feColorMatrix type="matrix" values="0 0 0 0 0.337255 0 0 0 0 0.8 0 0 0 0 0.807843 0 0 0 1 0"/>
<feBlend mode="normal" in2="BackgroundImageFix" result="effect1_dropShadow_299_159"/>
<feColorMatrix in="SourceAlpha" type="matrix" values="0 0 0 0 0 0 0 0 0 0 0 0 0 0 0 0 0 0 127 0" result="hardAlpha"/>
<feOffset dx="-1"/>
<feGaussianBlur stdDeviation="0.800327"/>
<feColorMatrix type="matrix" values="0 0 0 0 0.337255 0 0 0 0 0.8 0 0 0 0 0.807843 0 0 0 1 0"/>
<feBlend mode="normal" in2="effect1_dropShadow_299_159" result="effect2_dropShadow_299_159"/>
<feColorMatrix in="SourceAlpha" type="matrix" values="0 0 0 0 0 0 0 0 0 0 0 0 0 0 0 0 0 0 127 0" result="hardAlpha"/>
<feOffset dx="-1"/>
<feGaussianBlur stdDeviation="2.80114"/>
<feColorMatrix type="matrix" values="0 0 0 0 0.337255 0 0 0 0 0.8 0 0 0 0 0.807843 0 0 0 1 0"/>
<feBlend mode="normal" in2="effect2_dropShadow_299_159" result="effect3_dropShadow_299_159"/>
<feColorMatrix in="SourceAlpha" type="matrix" values="0 0 0 0 0 0 0 0 0 0 0 0 0 0 0 0 0 0 127 0" result="hardAlpha"/>
<feOffset dx="-1"/>
<feGaussianBlur stdDeviation="5.60229"/>
<feColorMatrix type="matrix" values="0 0 0 0 0.337255 0 0 0 0 0.8 0 0 0 0 0.807843 0 0 0 1 0"/>
<feBlend mode="normal" in2="effect3_dropShadow_299_159" result="effect4_dropShadow_299_159"/>
<feColorMatrix in="SourceAlpha" type="matrix" values="0 0 0 0 0 0 0 0 0 0 0 0 0 0 0 0 0 0 127 0" result="hardAlpha"/>
<feOffset dx="-1"/>
<feGaussianBlur stdDeviation="9.60393"/>
<feColorMatrix type="matrix" values="0 0 0 0 0.337255 0 0 0 0 0.8 0 0 0 0 0.807843 0 0 0 1 0"/>
<feBlend mode="normal" in2="effect4_dropShadow_299_159" result="effect5_dropShadow_299_159"/>
<feColorMatrix in="SourceAlpha" type="matrix" values="0 0 0 0 0 0 0 0 0 0 0 0 0 0 0 0 0 0 127 0" result="hardAlpha"/>
<feOffset dx="-1"/>
<feGaussianBlur stdDeviation="16.8069"/>
<feColorMatrix type="matrix" values="0 0 0 0 0.337255 0 0 0 0 0.8 0 0 0 0 0.807843 0 0 0 1 0"/>
<feBlend mode="normal" in2="effect5_dropShadow_299_159" result="effect6_dropShadow_299_159"/>
<feBlend mode="normal" in="SourceGraphic" in2="effect6_dropShadow_299_159" result="shape"/>
</filter>
<filter id="filter1_dddddd_299_159" x="35.3833" y="19.6003" width="385.918" height="196.269" filterUnits="userSpaceOnUse" color-interpolation-filters="sRGB">
<feFlood flood-opacity="0" result="BackgroundImageFix"/>
<feColorMatrix in="SourceAlpha" type="matrix" values="0 0 0 0 0 0 0 0 0 0 0 0 0 0 0 0 0 0 127 0" result="hardAlpha"/>
<feOffset/>
<feGaussianBlur stdDeviation="0.234939"/>
<feColorMatrix type="matrix" values="0 0 0 0 0.337255 0 0 0 0 0.8 0 0 0 0 0.807843 0 0 0 1 0"/>
<feBlend mode="normal" in2="BackgroundImageFix" result="effect1_dropShadow_299_159"/>
<feColorMatrix in="SourceAlpha" type="matrix" values="0 0 0 0 0 0 0 0 0 0 0 0 0 0 0 0 0 0 127 0" result="hardAlpha"/>
<feOffset/>
<feGaussianBlur stdDeviation="0.469879"/>
<feColorMatrix type="matrix" values="0 0 0 0 0.337255 0 0 0 0 0.8 0 0 0 0 0.807843 0 0 0 1 0"/>
<feBlend mode="normal" in2="effect1_dropShadow_299_159" result="effect2_dropShadow_299_159"/>
<feColorMatrix in="SourceAlpha" type="matrix" values="0 0 0 0 0 0 0 0 0 0 0 0 0 0 0 0 0 0 127 0" result="hardAlpha"/>
<feOffset/>
<feGaussianBlur stdDeviation="1.64458"/>
<feColorMatrix type="matrix" values="0 0 0 0 0.337255 0 0 0 0 0.8 0 0 0 0 0.807843 0 0 0 1 0"/>
<feBlend mode="normal" in2="effect2_dropShadow_299_159" result="effect3_dropShadow_299_159"/>
<feColorMatrix in="SourceAlpha" type="matrix" values="0 0 0 0 0 0 0 0 0 0 0 0 0 0 0 0 0 0 127 0" result="hardAlpha"/>
<feOffset/>
<feGaussianBlur stdDeviation="3.28915"/>
<feColorMatrix type="matrix" values="0 0 0 0 0.337255 0 0 0 0 0.8 0 0 0 0 0.807843 0 0 0 1 0"/>
<feBlend mode="normal" in2="effect3_dropShadow_299_159" result="effect4_dropShadow_299_159"/>
<feColorMatrix in="SourceAlpha" type="matrix" values="0 0 0 0 0 0 0 0 0 0 0 0 0 0 0 0 0 0 127 0" result="hardAlpha"/>
<feOffset/>
<feGaussianBlur stdDeviation="5.63855"/>
<feColorMatrix type="matrix" values="0 0 0 0 0.337255 0 0 0 0 0.8 0 0 0 0 0.807843 0 0 0 1 0"/>
<feBlend mode="normal" in2="effect4_dropShadow_299_159" result="effect5_dropShadow_299_159"/>
<feColorMatrix in="SourceAlpha" type="matrix" values="0 0 0 0 0 0 0 0 0 0 0 0 0 0 0 0 0 0 127 0" result="hardAlpha"/>
<feOffset/>
<feGaussianBlur stdDeviation="9.86745"/>
<feColorMatrix type="matrix" values="0 0 0 0 0.337255 0 0 0 0 0.8 0 0 0 0 0.807843 0 0 0 1 0"/>
<feBlend mode="normal" in2="effect5_dropShadow_299_159" result="effect6_dropShadow_299_159"/>
<feBlend mode="normal" in="SourceGraphic" in2="effect6_dropShadow_299_159" result="shape"/>
</filter>
<linearGradient id="paint0_linear_299_159" x1="218.422" y1="34.3818" x2="218.422" y2="201.539" gradientUnits="userSpaceOnUse">
<stop stop-color="#00B6B8"/>
<stop offset="0.825" stop-color="#002060"/>
</linearGradient>
<linearGradient id="paint1_linear_299_159" x1="228.342" y1="39.3352" x2="228.342" y2="196.134" gradientUnits="userSpaceOnUse">
<stop stop-color="#058C8E"/>
<stop offset="1" stop-color="#002060"/>
</linearGradient>
</defs>
</svg>
