<svg width="51" height="51" viewBox="0 0 51 51" fill="none" xmlns="http://www.w3.org/2000/svg">
<path d="M25.3911 25.219C23.3859 25.219 21.6694 24.5051 20.2416 23.0773C18.8135 21.6492 18.0994 19.9325 18.0994 17.9273C18.0994 15.9221 18.8135 14.2056 20.2416 12.7778C21.6694 11.3497 23.3859 10.6356 25.3911 10.6356C27.3963 10.6356 29.1128 11.3497 30.5406 12.7778C31.9687 14.2056 32.6828 15.9221 32.6828 17.9273C32.6828 19.9325 31.9687 21.6492 30.5406 23.0773C29.1128 24.5051 27.3963 25.219 25.3911 25.219ZM9.76611 41.0846V36.4528C9.76611 35.4327 10.0432 34.4879 10.5974 33.6184C11.1515 32.749 11.8922 32.0806 12.8192 31.6132C14.8783 30.6038 16.9555 29.8467 19.051 29.3419C21.1465 28.837 23.2599 28.5846 25.3911 28.5846C27.5224 28.5846 29.6357 28.837 31.7312 29.3419C33.8267 29.8467 35.904 30.6038 37.963 31.6132C38.8901 32.0806 39.6307 32.749 40.1849 33.6184C40.739 34.4879 41.0161 35.4327 41.0161 36.4528V41.0846H9.76611ZM12.8911 37.9596H37.8911V36.4528C37.8911 36.0309 37.7689 35.6403 37.5244 35.2809C37.28 34.9219 36.9482 34.6289 36.5291 34.4018C34.734 33.5177 32.9038 32.8479 31.0385 32.3924C29.1729 31.9372 27.2904 31.7096 25.3911 31.7096C23.4918 31.7096 21.6093 31.9372 19.7437 32.3924C17.8784 32.8479 16.0482 33.5177 14.2531 34.4018C13.834 34.6289 13.5022 34.9219 13.2578 35.2809C13.0133 35.6403 12.8911 36.0309 12.8911 36.4528V37.9596ZM25.3911 22.094C26.5369 22.094 27.5178 21.686 28.3338 20.87C29.1498 20.054 29.5578 19.0731 29.5578 17.9273C29.5578 16.7815 29.1498 15.8006 28.3338 14.9846C27.5178 14.1686 26.5369 13.7606 25.3911 13.7606C24.2453 13.7606 23.2644 14.1686 22.4484 14.9846C21.6324 15.8006 21.2244 16.7815 21.2244 17.9273C21.2244 19.0731 21.6324 20.054 22.4484 20.87C23.2644 21.686 24.2453 22.094 25.3911 22.094Z" fill="#061533"/>
</svg>
