<svg width="25" height="25" viewBox="0 0 25 25" fill="none" xmlns="http://www.w3.org/2000/svg">
<path d="M8.84727 16.9643L12.4473 13.3643L16.0473 16.9643L17.101 15.9105L13.501 12.3105L17.101 8.71055L16.0473 7.6568L12.4473 11.2568L8.84727 7.6568L7.79352 8.71055L11.3935 12.3105L7.79352 15.9105L8.84727 16.9643ZM12.449 21.8105C11.135 21.8105 9.89993 21.5612 8.74377 21.0625C7.5876 20.5639 6.58193 19.8871 5.72677 19.0323C4.8716 18.1775 4.19452 17.1722 3.69552 16.0165C3.19668 14.8609 2.94727 13.6261 2.94727 12.3123C2.94727 10.9983 3.1966 9.76321 3.69527 8.60705C4.19393 7.45088 4.87068 6.44521 5.72552 5.59005C6.58035 4.73488 7.5856 4.0578 8.74127 3.5588C9.89693 3.05996 11.1317 2.81055 12.4455 2.81055C13.7595 2.81055 14.9946 3.05988 16.1508 3.55855C17.3069 4.05721 18.3126 4.73396 19.1678 5.5888C20.0229 6.44363 20.7 7.44888 21.199 8.60455C21.6978 9.76021 21.9473 10.995 21.9473 12.3088C21.9473 13.6228 21.6979 14.8579 21.1993 16.014C20.7006 17.1702 20.0238 18.1759 19.169 19.031C18.3142 19.8862 17.3089 20.5633 16.1533 21.0623C14.9976 21.5611 13.7628 21.8105 12.449 21.8105ZM12.4473 20.3105C14.6806 20.3105 16.5723 19.5355 18.1223 17.9855C19.6723 16.4355 20.4473 14.5439 20.4473 12.3105C20.4473 10.0772 19.6723 8.18555 18.1223 6.63555C16.5723 5.08555 14.6806 4.31055 12.4473 4.31055C10.2139 4.31055 8.32227 5.08555 6.77227 6.63555C5.22227 8.18555 4.44727 10.0772 4.44727 12.3105C4.44727 14.5439 5.22227 16.4355 6.77227 17.9855C8.32227 19.5355 10.2139 20.3105 12.4473 20.3105Z" fill="#FF4D4F"/>
</svg>