<svg width="51" height="51" viewBox="0 0 51 51" fill="none" xmlns="http://www.w3.org/2000/svg">
<path d="M25.9329 33.3303C28.2937 33.3303 30.2987 32.504 31.948 30.8516C33.5973 29.1992 34.422 27.1926 34.422 24.8318C34.422 22.4711 33.5958 20.466 31.9433 18.8167C30.2909 17.1674 28.2843 16.3428 25.9235 16.3428C23.5628 16.3428 21.5577 17.169 19.9084 18.8214C18.2591 20.4738 17.4345 22.4804 17.4345 24.8412C17.4345 27.202 18.2607 29.207 19.9131 30.8563C21.5655 32.5056 23.5721 33.3303 25.9329 33.3303ZM25.9282 30.4615C24.3657 30.4615 23.0376 29.9146 21.9438 28.8209C20.8501 27.7271 20.3032 26.399 20.3032 24.8365C20.3032 23.274 20.8501 21.9459 21.9438 20.8521C23.0376 19.7584 24.3657 19.2115 25.9282 19.2115C27.4907 19.2115 28.8188 19.7584 29.9126 20.8521C31.0063 21.9459 31.5532 23.274 31.5532 24.8365C31.5532 26.399 31.0063 27.7271 29.9126 28.8209C28.8188 29.9146 27.4907 30.4615 25.9282 30.4615ZM25.9308 39.4198C21.1402 39.4198 16.7751 38.0983 12.8355 35.4553C8.89592 32.8125 5.99523 29.273 4.13342 24.8365C5.99523 20.4 8.89488 16.8605 12.8324 14.2178C16.7702 11.5747 21.1346 10.2532 25.9256 10.2532C30.7162 10.2532 35.0813 11.5747 39.0209 14.2178C42.9605 16.8605 45.8612 20.4 47.723 24.8365C45.8612 29.273 42.9616 32.8125 39.0241 35.4553C35.0862 38.0983 30.7218 39.4198 25.9308 39.4198ZM25.9282 36.2948C29.8518 36.2948 33.4543 35.2619 36.7355 33.1959C40.0168 31.1299 42.5254 28.3435 44.2616 24.8365C42.5254 21.3296 40.0168 18.5431 36.7355 16.4771C33.4543 14.4112 29.8518 13.3782 25.9282 13.3782C22.0046 13.3782 18.4022 14.4112 15.1209 16.4771C11.8397 18.5431 9.33099 21.3296 7.59488 24.8365C9.33099 28.3435 11.8397 31.1299 15.1209 33.1959C18.4022 35.2619 22.0046 36.2948 25.9282 36.2948Z" fill="#061533"/>
</svg>
