<svg width="25" height="25" viewBox="0 0 25 25" fill="none" xmlns="http://www.w3.org/2000/svg">
<path d="M11.2622 17.249H12.7622V11.499H11.2622V17.249ZM12.0122 9.78752C12.241 9.78752 12.4329 9.71011 12.5877 9.55527C12.7425 9.40044 12.82 9.20861 12.82 8.97977C12.82 8.75094 12.7425 8.55911 12.5877 8.40427C12.4329 8.24961 12.241 8.17227 12.0122 8.17227C11.7834 8.17227 11.5915 8.24961 11.4367 8.40427C11.2819 8.55911 11.2045 8.75094 11.2045 8.97977C11.2045 9.20861 11.2819 9.40044 11.4367 9.55527C11.5915 9.71011 11.7834 9.78752 12.0122 9.78752ZM12.014 21.999C10.7 21.999 9.46487 21.7497 8.30871 21.251C7.15254 20.7524 6.14687 20.0756 5.29171 19.2208C4.43654 18.3659 3.75946 17.3607 3.26046 16.205C2.76162 15.0494 2.51221 13.8146 2.51221 12.5008C2.51221 11.1868 2.76154 9.95169 3.26021 8.79552C3.75887 7.63936 4.43562 6.63369 5.29046 5.77852C6.14529 4.92336 7.15054 4.24627 8.30621 3.74727C9.46187 3.24844 10.6966 2.99902 12.0105 2.99902C13.3245 2.99902 14.5595 3.24836 15.7157 3.74702C16.8719 4.24569 17.8775 4.92244 18.7327 5.77727C19.5879 6.63211 20.265 7.63736 20.764 8.79302C21.2628 9.94869 21.5122 11.1834 21.5122 12.4973C21.5122 13.8113 21.2629 15.0464 20.7642 16.2025C20.2655 17.3587 19.5888 18.3644 18.734 19.2195C17.8791 20.0747 16.8739 20.7518 15.7182 21.2508C14.5625 21.7496 13.3278 21.999 12.014 21.999ZM12.0122 20.499C14.2455 20.499 16.1372 19.724 17.6872 18.174C19.2372 16.624 20.0122 14.7324 20.0122 12.499C20.0122 10.2657 19.2372 8.37402 17.6872 6.82402C16.1372 5.27402 14.2455 4.49902 12.0122 4.49902C9.77887 4.49902 7.88721 5.27402 6.33721 6.82402C4.78721 8.37402 4.01221 10.2657 4.01221 12.499C4.01221 14.7324 4.78721 16.624 6.33721 18.174C7.88721 19.724 9.77887 20.499 12.0122 20.499Z" fill="#0183D9"/>
</svg>