<svg width="51" height="51" viewBox="0 0 51 51" fill="none" xmlns="http://www.w3.org/2000/svg">
<path d="M41.2531 43.8551L28.1682 30.7697C27.1265 31.6297 25.9286 32.3028 24.5744 32.7889C23.2203 33.2751 21.8194 33.5181 20.3718 33.5181C16.8111 33.5181 13.7975 32.2853 11.3312 29.8197C8.86487 27.354 7.63171 24.3412 7.63171 20.7811C7.63171 17.2214 8.86453 14.2075 11.3302 11.7395C13.7958 9.27176 16.8086 8.0379 20.3687 8.0379C23.9284 8.0379 26.9423 9.27106 29.4104 11.7374C31.8781 14.2037 33.1119 17.2172 33.1119 20.778C33.1119 22.2659 32.8623 23.6869 32.363 25.041C31.8633 26.3952 31.1968 27.573 30.3635 28.5744L43.4484 41.6593L41.2531 43.8551ZM20.3718 30.3936C23.0562 30.3936 25.3298 29.462 27.1927 27.5988C29.0558 25.736 29.9874 23.4624 29.9874 20.778C29.9874 18.0936 29.0558 15.82 27.1927 13.9572C25.3298 12.094 23.0562 11.1624 20.3718 11.1624C17.6874 11.1624 15.4138 12.094 13.551 13.9572C11.6878 15.82 10.7562 18.0936 10.7562 20.778C10.7562 23.4624 11.6878 25.736 13.551 27.5988C15.4138 29.462 17.6874 30.3936 20.3718 30.3936Z" fill="#061533"/>
</svg>
