<svg width="51" height="51" viewBox="0 0 51 51" fill="none" xmlns="http://www.w3.org/2000/svg">
<path d="M33.2515 27.9052L30.9119 25.5657C31.2244 23.8403 30.7323 22.2891 29.4354 20.912C28.1388 19.5353 26.5477 19.0032 24.6619 19.3157L22.3224 16.9761C22.7925 16.765 23.2746 16.6066 23.7687 16.5011C24.2628 16.3955 24.8036 16.3427 25.3911 16.3427C27.755 16.3427 29.7616 17.1674 31.4109 18.8167C33.0602 20.466 33.8849 22.4726 33.8849 24.8365C33.8849 25.424 33.8321 25.9716 33.7265 26.4792C33.621 26.9865 33.4626 27.4618 33.2515 27.9052ZM39.8781 34.3875L37.5786 32.2323C38.8981 31.2254 40.0699 30.123 41.0942 28.925C42.1185 27.7271 42.9953 26.3643 43.7244 24.8365C41.9883 21.3296 39.497 18.5431 36.2505 16.4771C33.004 14.4112 29.3842 13.3782 25.3911 13.3782C24.3842 13.3782 23.3946 13.4476 22.4224 13.5865C21.4501 13.7254 20.4953 13.9337 19.5578 14.2115L17.1302 11.7839C18.4468 11.2603 19.7916 10.8743 21.1645 10.6261C22.5375 10.3775 23.9463 10.2532 25.3911 10.2532C30.2734 10.2532 34.6763 11.5993 38.6 14.2917C42.5236 16.9841 45.3856 20.499 47.1859 24.8365C46.414 26.698 45.4171 28.4355 44.1953 30.049C42.9731 31.6622 41.534 33.1084 39.8781 34.3875ZM41.5609 46.4391L33.1317 38.0735C32.0633 38.469 30.8793 38.7922 29.5796 39.0433C28.2803 39.2943 26.8842 39.4198 25.3911 39.4198C20.4953 39.4198 16.0923 38.0736 12.1823 35.3813C8.27183 32.6889 5.40986 29.174 3.59631 24.8365C4.36541 22.9962 5.35899 21.2796 6.57704 19.6865C7.7951 18.0931 9.1359 16.7115 10.5994 15.5417L4.83017 9.70837L7.026 7.51306L43.7562 44.2433L41.5609 46.4391ZM12.7953 17.737C11.6946 18.6131 10.6241 19.6662 9.58381 20.8964C8.54354 22.1263 7.70152 23.4396 7.05777 24.8365C8.79388 28.3434 11.2852 31.1299 14.5317 33.1959C17.7783 35.2618 21.3981 36.2948 25.3911 36.2948C26.3394 36.2948 27.2836 36.2146 28.2239 36.0542C29.1638 35.8941 29.9611 35.7287 30.6156 35.5578L27.9791 32.8573C27.6239 33.0014 27.2126 33.1162 26.7453 33.2016C26.2779 33.2874 25.8265 33.3302 25.3911 33.3302C23.0272 33.3302 21.0206 32.5056 19.3713 30.8563C17.722 29.207 16.8974 27.2004 16.8974 24.8365C16.8974 24.4146 16.9402 23.9733 17.026 23.5125C17.1114 23.0518 17.2262 22.6304 17.3703 22.2485L12.7953 17.737Z" fill="#061533"/>
</svg>
