<svg width="25" height="25" viewBox="0 0 25 25" fill="none" xmlns="http://www.w3.org/2000/svg">
<path d="M7.28382 21.6416C6.78516 21.6416 6.35916 21.465 6.00582 21.1119C5.65266 20.7585 5.47607 20.3325 5.47607 19.8339V10.4494C5.47607 9.95069 5.65266 9.52468 6.00582 9.17135C6.35916 8.81818 6.78516 8.6416 7.28382 8.6416H8.47607V6.6416C8.47607 5.39294 8.91391 4.33077 9.78957 3.4551C10.6652 2.57943 11.7274 2.1416 12.9761 2.1416C14.2247 2.1416 15.2869 2.57943 16.1626 3.4551C17.0382 4.33077 17.4761 5.39294 17.4761 6.6416V8.6416H18.6683C19.167 8.6416 19.593 8.81818 19.9463 9.17135C20.2995 9.52468 20.4761 9.95069 20.4761 10.4494V19.8339C20.4761 20.3325 20.2995 20.7585 19.9463 21.1119C19.593 21.465 19.167 21.6416 18.6683 21.6416H7.28382ZM7.28382 20.1416H18.6683C18.7582 20.1416 18.8319 20.1128 18.8896 20.0551C18.9472 19.9974 18.9761 19.9237 18.9761 19.8339V10.4494C18.9761 10.3595 18.9472 10.2858 18.8896 10.2281C18.8319 10.1704 18.7582 10.1416 18.6683 10.1416H7.28382C7.19399 10.1416 7.12024 10.1704 7.06257 10.2281C7.00491 10.2858 6.97607 10.3595 6.97607 10.4494V19.8339C6.97607 19.9237 7.00491 19.9974 7.06257 20.0551C7.12024 20.1128 7.19399 20.1416 7.28382 20.1416ZM12.9761 16.8916C13.4619 16.8916 13.8751 16.7214 14.2156 16.3811C14.5559 16.0406 14.7261 15.6274 14.7261 15.1416C14.7261 14.6558 14.5559 14.2426 14.2156 13.9021C13.8751 13.5618 13.4619 13.3916 12.9761 13.3916C12.4902 13.3916 12.0771 13.5618 11.7366 13.9021C11.3962 14.2426 11.2261 14.6558 11.2261 15.1416C11.2261 15.6274 11.3962 16.0406 11.7366 16.3811C12.0771 16.7214 12.4902 16.8916 12.9761 16.8916ZM9.97607 8.6416H15.9761V6.6416C15.9761 5.80827 15.6844 5.09994 15.1011 4.5166C14.5177 3.93327 13.8094 3.6416 12.9761 3.6416C12.1427 3.6416 11.4344 3.93327 10.8511 4.5166C10.2677 5.09994 9.97607 5.80827 9.97607 6.6416V8.6416Z" fill="#061533"/>
</svg>
